<?xml version="1.0" standalone="no"?>
<!DOCTYPE svg PUBLIC "-//W3C//DTD SVG 20010904//EN"
 "http://www.w3.org/TR/2001/REC-SVG-20010904/DTD/svg10.dtd">
<svg version="1.0" xmlns="http://www.w3.org/2000/svg"
 width="1080.000000pt" height="1080.000000pt" viewBox="0 0 1080.000000 1080.000000"
 preserveAspectRatio="xMidYMid meet">

<g transform="translate(0.000000,1080.000000) scale(0.100000,-0.100000)"
fill="#000000" stroke="none">
<path d="M6690 8178 c-358 -84 -592 -159 -770 -248 -101 -51 -127 -104 -75
-155 44 -44 118 -31 360 65 151 59 282 103 296 98 7 -2 -69 -76 -167 -165
-247 -222 -250 -225 -258 -251 -4 -12 -13 -22 -20 -22 -8 0 -49 23 -92 52
-103 67 -241 142 -310 167 -47 18 -78 21 -223 21 -219 0 -421 -34 -573 -97
l-63 -26 -280 2 c-154 1 -507 -5 -785 -14 -530 -17 -550 -20 -550 -63 0 -36
20 -42 142 -42 65 0 118 -4 118 -9 0 -4 -35 -14 -77 -21 -229 -36 -298 -64
-275 -114 13 -29 44 -36 176 -37 55 -1 92 -3 81 -5 -11 -3 -83 -16 -159 -31
-165 -31 -197 -51 -162 -99 13 -17 27 -19 146 -19 146 0 140 3 167 -81 l10
-31 -77 -17 c-78 -16 -110 -37 -110 -70 0 -9 -7 -27 -16 -41 -12 -18 -13 -29
-5 -43 8 -15 7 -23 -4 -32 -18 -15 -20 -51 -4 -67 8 -8 5 -17 -10 -32 -45 -45
-12 -81 72 -81 54 0 57 -1 57 -24 0 -14 5 -28 10 -31 6 -4 8 -21 4 -40 -8 -45
9 -73 51 -81 21 -4 37 -13 40 -25 13 -40 119 -44 405 -13 l55 5 -3 -245 -4
-245 30 -31 c37 -37 74 -39 107 -5 25 24 25 26 25 212 0 103 3 211 6 240 7 58
-4 51 127 69 l47 6 0 -80 c0 -128 61 -256 171 -362 122 -117 367 -202 626
-217 l102 -6 -6 -101 c-3 -56 -7 -102 -8 -103 -1 -2 -47 -14 -102 -28 -87 -22
-119 -25 -229 -23 l-128 3 -8 30 c-4 17 -21 44 -38 60 -27 26 -39 30 -103 33
-63 3 -77 1 -107 -20 -71 -48 -101 -128 -80 -209 15 -56 88 -129 146 -147 63
-18 473 -16 547 3 32 8 61 15 65 15 4 0 6 -83 4 -184 -4 -206 2 -230 61 -266
43 -27 87 -25 132 5 20 15 38 25 40 23 1 -2 9 -39 18 -83 64 -316 69 -328 130
-359 48 -23 96 -15 140 24 31 28 32 30 30 112 -1 63 -19 163 -76 418 -42 184
-74 336 -73 338 2 1 108 5 235 7 127 2 239 9 249 14 88 48 94 175 9 226 -30
18 -52 20 -287 20 l-255 0 -17 85 c-9 46 -18 103 -20 127 l-3 43 310 152 c324
158 434 220 555 314 l73 56 226 -2 c237 -3 880 8 919 16 51 10 11 84 -46 84
-30 0 -64 18 -57 31 4 5 17 9 30 9 33 0 60 41 46 69 -9 17 -8 22 9 31 12 6 25
23 31 37 14 37 -8 64 -67 82 -46 15 -49 19 -55 56 -5 27 -2 46 8 62 25 38 9
71 -45 95 -26 11 -48 22 -50 23 -2 1 11 16 27 32 48 49 19 93 -62 93 -30 1
-31 1 -12 15 39 28 43 34 49 79 9 56 -4 81 -48 96 -19 6 -40 18 -46 26 -8 8
-30 14 -57 14 -27 0 -42 4 -38 10 4 6 63 10 144 10 154 0 175 7 169 55 -2 25
-10 32 -43 44 -42 14 -195 26 -472 37 l-162 7 34 91 c59 162 123 315 170 403
54 104 58 147 19 187 -32 31 -62 32 -184 4z m-134 -484 c-19 -49 -42 -115 -52
-146 l-18 -58 -85 1 c-147 2 -148 -4 28 155 86 78 157 140 159 139 1 -1 -13
-42 -32 -91z m-1243 -121 c-13 -2 -33 -2 -45 0 -13 2 -3 4 22 4 25 0 35 -2 23
-4z m1882 -783 c7 -12 -12 -12 -40 0 -18 8 -17 9 7 9 15 1 30 -3 33 -9z
m-2634 -445 c10 -77 45 -149 100 -200 56 -53 42 -59 -41 -18 -98 49 -170 143
-170 221 0 21 3 42 7 46 4 4 28 6 53 4 l45 -3 6 -50z m858 46 l94 -6 -67 -37
c-158 -88 -302 -128 -455 -128 -124 1 -187 13 -220 43 -28 26 -51 76 -51 112
l0 25 303 -1 c166 -1 344 -4 396 -8z m-132 -361 c-102 -44 -194 -70 -246 -69
-40 0 -31 5 79 34 69 18 143 40 165 49 71 26 72 16 2 -14z"/>
<path d="M5673 4930 c-37 -22 -63 -67 -63 -108 0 -35 37 -92 70 -109 58 -29
136 -7 170 50 67 109 -66 235 -177 167z"/>
</g>
</svg>
