<svg aria-hidden="true" style="position: absolute; width: 0; height: 0; overflow: hidden;" version="1.1" xmlns="http://www.w3.org/2000/svg" xmlns:xlink="http://www.w3.org/1999/xlink">
<defs>
<symbol id="icon-logoSA" viewBox="0 0 35 32">
<path d="M0 0h34.933v32h-34.933v-32z"></path>
</symbol>
<symbol id="icon-arrow_right" viewBox="0 0 11 32">
<path d="M1.637 31.786l-1.637-2.901 7.382-12.992-7.382-12.992 1.637-2.901 9.030 15.893-9.030 15.893z"></path>
</symbol>
<symbol id="icon-footer_c" viewBox="0 0 26 32">
<path fill="#fff" style="fill: var(--color1, #fff)" d="M14.344 23.645c1.364 0 2.472-0.375 3.324-1.125s1.295-1.747 1.33-2.991h6.929c-0.017 1.875-0.528 3.597-1.534 5.165-1.006 1.551-2.386 2.761-4.142 3.631-1.739 0.852-3.665 1.278-5.778 1.278-3.955 0-7.074-1.253-9.358-3.759-2.284-2.523-3.426-6-3.426-10.432v-0.486c0-4.261 1.134-7.662 3.401-10.202s5.378-3.81 9.332-3.81c3.46 0 6.23 0.989 8.31 2.966 2.097 1.96 3.162 4.577 3.196 7.849h-6.929c-0.034-1.432-0.477-2.591-1.33-3.477-0.852-0.903-1.977-1.355-3.375-1.355-1.722 0-3.026 0.631-3.912 1.892-0.869 1.244-1.304 3.273-1.304 6.085v0.767c0 2.847 0.435 4.892 1.304 6.136s2.19 1.866 3.963 1.866z"></path>
</symbol>
<symbol id="icon-arrow_up" viewBox="0 0 32 32">
<path fill="#e96d14" style="fill: var(--color2, #e96d14)" d="M23.977 4.103h-15.954c-0.604 0-1.184 0.24-1.612 0.668s-0.668 1.007-0.668 1.612v15.954c0 0.605 0.24 1.184 0.668 1.612s1.007 0.668 1.612 0.668h15.954c1.265 0 2.279-1.014 2.279-2.279v-15.954c0-0.604-0.24-1.184-0.668-1.612s-1.007-0.668-1.612-0.668zM21.231 18.587l-5.231-5.231-5.231 5.231-1.607-1.618 6.838-6.838 6.838 6.838-1.607 1.618z"></path>
<path fill="none" stroke="#fff" style="stroke: var(--color1, #fff)" stroke-linejoin="miter" stroke-linecap="butt" stroke-miterlimit="4" stroke-width="0.4103" d="M21.086 18.732l0.146 0.146 1.896-1.909-7.127-7.127-7.127 7.127 1.896 1.909 5.231-5.231 5.086 5.086zM8.023 4.308h15.954c0.55 0 1.078 0.218 1.467 0.607s0.607 0.917 0.607 1.467v15.954c0 1.152-0.922 2.074-2.074 2.074h-15.954c-0.55 0-1.078-0.218-1.467-0.607s-0.607-0.916-0.607-1.467v-15.954c0-0.55 0.218-1.078 0.607-1.467s0.917-0.607 1.467-0.607z"></path>
</symbol>
<symbol id="icon-pen" viewBox="0 0 32 32">
<path d="M27.42 1.914l0.28-0.28c0.211-0.211 0.461-0.378 0.736-0.492s0.57-0.172 0.868-0.172 0.593 0.059 0.868 0.173c0.275 0.114 0.525 0.281 0.736 0.492s0.378 0.461 0.491 0.736c0.114 0.275 0.173 0.57 0.173 0.868s-0.059 0.593-0.173 0.868c-0.114 0.275-0.281 0.525-0.492 0.736l-0.28 0.278c0.479 0.537 0.734 1.237 0.714 1.956s-0.316 1.403-0.825 1.912l-19.336 19.338c-0.121 0.12-0.272 0.205-0.438 0.246l-7.515 1.879c-0.157 0.039-0.322 0.037-0.478-0.006s-0.298-0.126-0.413-0.241-0.198-0.257-0.241-0.413c-0.043-0.156-0.046-0.321-0.006-0.478l1.879-7.515c0.041-0.165 0.126-0.316 0.246-0.436l18.115-18.115c-0.181-0.128-0.402-0.187-0.622-0.168s-0.428 0.116-0.584 0.273l-6.185 6.187c-0.087 0.087-0.191 0.157-0.305 0.204s-0.236 0.072-0.36 0.072c-0.124 0-0.246-0.024-0.36-0.072s-0.218-0.117-0.305-0.204c-0.087-0.087-0.157-0.191-0.204-0.305s-0.072-0.236-0.072-0.36c0-0.124 0.024-0.246 0.072-0.36s0.117-0.218 0.204-0.305l6.189-6.185c0.509-0.509 1.194-0.804 1.913-0.824s1.42 0.236 1.957 0.715c0.516-0.461 1.184-0.717 1.877-0.717s1.361 0.254 1.877 0.715zM26.21 3.353c-0.176-0.176-0.415-0.275-0.664-0.275s-0.488 0.099-0.664 0.275l-19.158 19.154-1.435 5.743 5.743-1.435 19.158-19.154c0.087-0.087 0.157-0.191 0.204-0.305s0.072-0.236 0.072-0.36c0-0.124-0.024-0.246-0.072-0.36s-0.117-0.218-0.204-0.305l-2.98-2.978z"></path>
</symbol>
<symbol id="icon-search" viewBox="0 0 26 32">
<path d="M13.091 11.636c1.157 0 2.267 0.46 3.086 1.278s1.278 1.928 1.278 3.086c0 1.157-0.46 2.267-1.278 3.086s-1.928 1.278-3.086 1.278c-1.157 0-2.267-0.46-3.086-1.278s-1.278-1.928-1.278-3.086c0-1.157 0.46-2.267 1.278-3.086s1.928-1.278 3.086-1.278zM21.615 26.633c-2.371 2.778-5.207 4.567-8.524 5.367-3.724-0.887-6.836-3.011-9.338-6.356-2.502-3.331-3.753-7.025-3.753-11.098v-8.727l13.091-5.818 13.091 5.818v8.727c0 3.476-0.931 6.705-2.793 9.702l-4.233-4.233c0.756-1.149 1.207-2.56 1.207-4.015 0-1.929-0.766-3.779-2.13-5.143s-3.214-2.13-5.143-2.13-3.779 0.766-5.143 2.13c-1.364 1.364-2.13 3.214-2.13 5.143s0.766 3.779 2.13 5.143c1.364 1.364 3.214 2.13 5.143 2.13 1.455 0 2.865-0.451 4.015-1.207l4.509 4.567z"></path>
</symbol>
<symbol id="icon-logo_design" viewBox="0 0 35 32">
<path d="M0 0h34.933v32h-34.933v-32z"></path>
</symbol>
<symbol id="icon-phone" viewBox="0 0 26 32">
<path d="M5.847 2.756c-0.094-0.147-0.214-0.267-0.35-0.354s-0.286-0.138-0.439-0.149c-0.154-0.011-0.307 0.017-0.451 0.082s-0.275 0.168-0.383 0.299l-1.654 1.998c-0.773 0.934-1.058 2.256-0.72 3.416 1.401 4.801 3.68 9.16 6.669 12.753 2.979 3.605 6.592 6.354 10.572 8.044 0.962 0.407 2.058 0.064 2.832-0.868l1.654-1.996c0.109-0.131 0.193-0.289 0.248-0.462s0.078-0.359 0.068-0.544c-0.010-0.185-0.052-0.366-0.124-0.53s-0.172-0.308-0.293-0.422l-3.691-3.462c-0.13-0.121-0.281-0.206-0.442-0.247s-0.327-0.037-0.486 0.011l-3.504 1.056c-0.468 0.141-0.958 0.133-1.422-0.022s-0.888-0.453-1.229-0.864l-3.929-4.742c-0.341-0.411-0.588-0.922-0.717-1.482s-0.135-1.152-0.019-1.716l0.877-4.227c0.040-0.192 0.043-0.393 0.009-0.587s-0.104-0.376-0.204-0.533l-2.87-4.452zM3.015 1.179c0.28-0.338 0.616-0.6 0.987-0.769s0.766-0.241 1.162-0.211c0.395 0.030 0.781 0.161 1.131 0.384s0.657 0.534 0.9 0.911l2.87 4.451c0.526 0.816 0.712 1.88 0.504 2.883l-0.875 4.227c-0.045 0.219-0.043 0.448 0.007 0.666s0.146 0.416 0.278 0.575l3.931 4.742c0.133 0.16 0.297 0.275 0.478 0.336s0.371 0.063 0.553 0.008l3.502-1.056c0.411-0.124 0.839-0.133 1.253-0.028s0.803 0.323 1.137 0.636l3.689 3.462c1.326 1.245 1.448 3.609 0.261 5.039l-1.654 1.996c-1.184 1.428-2.953 2.055-4.603 1.355-4.222-1.792-8.055-4.708-11.216-8.531-3.169-3.812-5.586-8.435-7.072-13.527-0.579-1.988-0.059-4.124 1.125-5.553l1.654-1.996h-0.002z"></path>
</symbol>
</defs>
</svg>
